PathFileType	4	(X/Y/Z)	TVC_36_BWA_02_walk_RCNL2025.trc
DataRate	CameraRate	NumFrames	NumMarkers	Units	OrigDataRate	OrigDataStartFrame	OrigNumFrames
100	100	8	27	mm	100	1	487
Frame#	Time	R_Shoulder			L_Shoulder			C7			J_Notch			R_Elbow			L_Elbow			R_Wrist			L_Wrist			R_Asis			L_Asis			R_Psis			L_Psis			Sacral			Thoracic			Sternum			R_Thigh_Lateral			R_Knee_Lateral			R_Shank_Lateral			R_Ankle_Lateral			R_Heel			R_Toe			L_Thigh_Lateral			L_Knee_Lateral			L_Shank_Lateral			L_Ankle_Lateral			L_Heel			L_Toe		
		X1	Y1	Z1	X2	Y2	Z2	X3	Y3	Z3	X4	Y4	Z4	X5	Y5	Z5	X6	Y6	Z6	X7	Y7	Z7	X8	Y8	Z8	X9	Y9	Z9	X10	Y10	Z10	X11	Y11	Z11	X12	Y12	Z12	X13	Y13	Z13	X14	Y14	Z14	X15	Y15	Z15	X16	Y16	Z16	X17	Y17	Z17	X18	Y18	Z18	X19	Y19	Z19	X20	Y20	Z20	X21	Y21	Z21	X22	Y22	Z22	X23	Y23	Z23	X24	Y24	Z24	X25	Y25	Z25	X26	Y26	Z26	X27	Y27	Z27
1	0.00000000	-284.907227	1385.846680	566.623291	-372.389496	1350.770508	225.819092	-366.729462	1425.894775	407.131378	-214.132492	1302.797119	382.844849	-200.653900	1175.080200	756.942749	-401.142212	1061.946655	120.357651	13.702925	1120.817688	758.518951	-220.370705	951.187256	170.172417	-230.897552	892.773193	540.472595	-278.412170	903.821411	283.817993	-416.436737	908.551392	488.451935	-432.511475	900.729736	405.234009	-424.474106	904.640564	446.842972	-418.471313	1145.088623	441.224854	-177.901199	1152.560547	375.774292	-272.743591	616.927551	597.106140	-298.925568	440.843872	506.176361	-386.542297	250.945862	545.683716	-443.198242	69.859367	469.059448	-486.922272	59.096272	415.421112	-320.017517	41.242714	452.471924	-217.308609	702.007996	173.146591	-111.595581	526.198486	209.672211	-136.743271	324.801086	152.691254	-63.060299	119.104828	192.205200	-104.309502	96.369324	234.978302	66.662498	114.088669	229.452377
2	0.01000000	-283.302856	1384.937622	566.642944	-369.680511	1350.374634	225.585220	-364.562714	1425.229248	406.890259	-211.640732	1302.581909	382.779755	-197.585754	1173.491577	755.681030	-399.506012	1061.874390	120.056473	17.795418	1121.587219	751.633636	-219.474007	950.251556	170.744339	-227.671646	892.174438	539.980408	-273.724487	903.341125	283.277222	-413.146484	907.960144	487.110443	-428.711731	900.187378	403.791931	-420.929108	904.073761	445.451187	-415.532898	1144.027588	440.056641	-174.697281	1152.523438	375.842499	-270.539246	616.457947	596.772400	-297.163300	440.278717	505.964844	-385.794373	250.826721	545.609619	-443.221588	69.899994	468.973511	-487.008881	59.203743	415.390320	-320.064240	41.225140	452.627319	-212.685867	699.903259	174.043457	-108.986015	523.203247	212.186829	-133.576843	321.729126	155.303574	-59.789173	116.094490	195.733627	-102.004189	93.868240	237.840256	69.375916	111.036346	234.172195
3	0.02000000	-281.478790	1383.969238	566.609070	-366.769287	1349.963379	225.293488	-362.225647	1424.512573	406.599518	-208.963898	1302.316284	382.667755	-194.532745	1171.810547	754.400208	-397.716766	1061.759155	119.762756	21.730281	1122.123535	744.761627	-218.491745	949.258118	171.495941	-224.323074	891.515076	539.455933	-269.021606	902.774780	282.672455	-409.728394	907.393311	485.764740	-424.822723	899.677917	402.364990	-417.275558	903.535614	444.064865	-412.430389	1142.965088	438.869293	-171.320450	1152.435059	375.862244	-268.288177	615.961609	596.397095	-295.399811	439.706085	505.725159	-385.020996	250.724930	545.537659	-443.222565	69.946648	468.892456	-487.076691	59.314693	415.365204	-320.103973	41.191559	452.746033	-208.159546	697.677185	174.960205	-106.842102	519.932739	214.642258	-131.032486	318.415009	157.831497	-57.315235	112.801720	199.105133	-100.468987	91.091705	240.515915	71.330368	107.590195	238.708847
4	0.03000000	-279.431244	1382.945801	566.517212	-363.658295	1349.526367	224.938492	-359.717133	1423.740601	406.252563	-206.099823	1301.996704	382.509186	-191.473251	1170.052856	753.106689	-395.764496	1061.584229	119.477043	25.504114	1122.483826	737.969879	-217.410431	948.199188	172.414497	-220.852997	890.796143	538.900269	-264.306976	902.094971	282.001678	-406.173065	906.841248	484.415009	-420.822296	899.180786	400.945618	-413.497681	903.011017	442.680313	-409.155243	1141.895996	437.657227	-167.770905	1152.294067	375.829834	-265.991302	615.439148	595.982056	-293.642853	439.126709	505.464142	-384.238007	250.639816	545.468872	-443.205414	69.988953	468.817322	-487.122742	59.421955	415.341339	-320.139038	41.138412	452.829712	-203.720810	695.342896	175.880447	-105.146423	516.416992	217.014099	-129.102264	314.884644	160.261337	-55.639751	109.256752	202.307465	-99.659103	88.045158	243.029572	72.536163	103.769127	243.048615
5	0.04000000	-277.158630	1381.873535	566.362915	-360.350342	1349.056274	224.515976	-357.036285	1422.911499	405.844330	-203.047028	1301.623657	382.303314	-188.388458	1168.235962	751.804810	-393.637115	1061.336670	119.202255	29.113673	1122.730652	731.328033	-216.215881	947.066986	173.486374	-217.264114	890.022522	538.315979	-259.580109	901.283875	281.266602	-402.470795	906.296631	483.059998	-416.684906	898.676880	399.522858	-409.577850	902.486755	441.291428	-405.696442	1140.815063	436.414001	-164.049011	1152.102539	375.740173	-263.649780	614.890930	595.531067	-291.896088	438.539948	505.188232	-383.457764	250.567993	545.402283	-443.175079	70.016586	468.748505	-487.145844	59.519695	415.314362	-320.172241	41.062691	452.882263	-199.375275	692.910522	176.785141	-103.883179	512.689026	219.280121	-127.777740	311.166443	162.583420	-54.747234	105.495026	205.333832	-99.523666	84.742943	245.409134	73.012993	99.601799	247.176285
6	0.05000000	-274.661316	1380.760376	566.142090	-356.848969	1348.548584	224.023148	-354.182648	1422.026245	405.371643	-199.805161	1301.200928	382.048035	-185.262772	1166.379150	750.497620	-391.321259	1061.007812	118.943382	32.563784	1122.926453	724.904083	-214.893135	945.854187	174.697075	-213.560867	889.200195	537.705933	-254.838058	900.335083	280.471954	-398.612823	905.754456	481.697388	-412.387177	898.151306	398.084808	-405.500000	901.952881	439.891098	-402.043182	1139.718872	435.133911	-160.155670	1151.864868	375.587494	-261.263519	614.315979	595.047852	-290.158325	437.943848	504.901825	-382.686920	250.503891	545.334473	-443.136169	70.021400	468.685150	-487.146484	59.604443	415.279816	-320.206055	40.962727	452.908722	-195.142960	690.389404	177.652191	-103.036644	508.786285	221.419632	-127.046875	307.293304	164.791077	-54.602699	101.559219	208.180771	-100.007141	81.213760	247.679047	72.794319	95.130630	251.074249
7	0.06000000	-271.941986	1379.616699	565.851562	-353.159302	1348.001709	223.458786	-351.156219	1421.089844	404.832916	-196.375366	1300.735962	381.739716	-182.083527	1164.504761	749.187866	-388.803467	1060.592407	118.706612	35.872231	1123.129517	718.760803	-213.426613	944.555542	176.031418	-209.749786	888.334656	537.073486	-250.078110	899.254150	279.624268	-394.592407	905.211609	480.324768	-407.915131	897.596558	396.622498	-401.253769	901.404083	438.473633	-398.186401	1138.606812	433.813843	-156.092697	1151.586792	375.365814	-258.829346	613.711792	594.534485	-288.423645	437.335358	504.605713	-381.925629	250.441025	545.259155	-443.092224	69.999146	468.624298	-487.126282	59.676052	415.232697	-320.242310	40.838936	452.914337	-191.055817	687.792114	178.456223	-102.587959	504.753143	223.412216	-126.889412	303.305328	166.878906	-55.149036	97.501442	210.845306	-101.047325	77.504044	249.855896	71.932205	90.415726	254.721817
8	0.07000000	-269.005066	1378.455078	565.489685	-349.288361	1347.416870	222.823120	-347.957764	1420.111938	404.228149	-192.760620	1300.238647	381.373291	-178.840195	1162.637207	747.878784	-386.071228	1060.088989	118.498383	39.070784	1123.391907	712.953247	-211.800301	943.169037	177.473480	-205.839279	887.430359	536.421448	-245.299728	898.058533	278.731873	-390.406311	904.667664	478.941437	-403.270782	897.015991	395.133942	-396.838547	900.841827	437.037689	-394.119568	1137.482178	432.454346	-151.863327	1151.275757	375.069458	-256.340546	613.074768	593.989441	-286.682587	436.711487	504.296478	-381.168396	250.373932	545.167664	-443.045013	69.950684	468.560760	-487.087219	59.738495	415.166962	-320.281586	40.694309	452.903839	-187.153503	685.139099	179.168381	-102.510490	500.643860	225.236618	-127.270927	299.253387	168.840439	-56.304768	93.384949	213.322113	-102.570450	73.679031	251.946121	70.501892	85.537888	258.094696
